<mxfile host="app.diagrams.net" modified="2024-06-12T20:34:12.924Z" agent="Mozilla/5.0 (Windows NT 10.0; Win64; x64) AppleWebKit/537.36 (KHTML, like Gecko) Chrome/125.0.0.0 Safari/537.36" version="24.5.4" etag="DUlVDOKw_wXAVPuYdzLY" type="github">
  <diagram name="Page-1" id="_aH3JxqRSR_nkquGscDD">
    <mxGraphModel>
      <root>
        <mxCell id="0" />
        <mxCell id="1" parent="0" />
      </root>
    </mxGraphModel>
  </diagram>
</mxfile>
